<svg xmlns="http://www.w3.org/2000/svg" viewBox="0 0 35 33" fill="none">
  <path d="M32.9582 1L19.8241 10.7183L22.2665 5.09082L32.9582 1Z" fill="#E17726" stroke="#E17726" strokeWidth="0.25" strokeLinecap="round" strokeLinejoin="round"/>
  <path d="M2.04858 1L15.0707 10.809L12.7403 5.09082L2.04858 1Z" fill="#E27625" stroke="#E27625" strokeWidth="0.25" strokeLinecap="round" strokeLinejoin="round"/>
  <path d="M28.2292 23.5334L24.7497 28.8961L32.2942 30.9576L34.4377 23.6543L28.2292 23.5334Z" fill="#E27625" stroke="#E27625" strokeWidth="0.25" strokeLinecap="round" strokeLinejoin="round"/>
  <path d="M0.570557 23.6543L2.7019 30.9576L10.2343 28.8961L6.76689 23.5334L0.570557 23.6543Z" fill="#E27625" stroke="#E27625" strokeWidth="0.25" strokeLinecap="round" strokeLinejoin="round"/>
  <path d="M9.86285 14.6232L7.77346 17.7632L15.2238 18.1126L14.9747 10.0693L9.86285 14.6232Z" fill="#E27625" stroke="#E27625" strokeWidth="0.25" strokeLinecap="round" strokeLinejoin="round"/>
  <path d="M25.1372 14.6232L19.9374 9.97852L19.7762 18.1126L27.2265 17.7632L25.1372 14.6232Z" fill="#E27625" stroke="#E27625" strokeWidth="0.25" strokeLinecap="round" strokeLinejoin="round"/>
  <path d="M10.2343 28.8961L14.7767 26.7345L10.8532 23.7153L10.2343 28.8961Z" fill="#E27625" stroke="#E27625" strokeWidth="0.25" strokeLinecap="round" strokeLinejoin="round"/>
  <path d="M20.2233 26.7345L24.7537 28.8961L24.1467 23.7153L20.2233 26.7345Z" fill="#E27625" stroke="#E27625" strokeWidth="0.25" strokeLinecap="round" strokeLinejoin="round"/>
</svg>
